<?xml version="1.0" encoding="UTF-8"?>
<svg xmlns="http://www.w3.org/2000/svg" xmlns:xlink="http://www.w3.org/1999/xlink" width="16pt" height="16pt" viewBox="0 0 16 16" version="1.1">
<g id="surface675952">
<path style=" stroke:none;fill-rule:nonzero;fill:rgb(100%,100%,100%);fill-opacity:1;" d="M 0.5 7.300781 L 15.5 7.300781 L 15.5 8.699219 L 0.5 8.699219 Z M 0.5 7.300781 "/>
<path style=" stroke:none;fill-rule:nonzero;fill:rgb(77.254902%,72.156863%,100%);fill-opacity:1;" d="M 15.398438 7.398438 L 15.398438 8.601562 L 0.601562 8.601562 L 0.601562 7.398438 L 15.398438 7.398438 M 15.601562 7.199219 L 0.398438 7.199219 L 0.398438 8.800781 L 15.601562 8.800781 Z M 15.601562 7.199219 "/>
<path style=" stroke:none;fill-rule:nonzero;fill:rgb(100%,100%,100%);fill-opacity:1;" d="M 0.5 3.300781 L 15.5 3.300781 L 15.5 4.699219 L 0.5 4.699219 Z M 0.5 3.300781 "/>
<path style=" stroke:none;fill-rule:nonzero;fill:rgb(77.254902%,72.156863%,100%);fill-opacity:1;" d="M 15.398438 3.398438 L 15.398438 4.601562 L 0.601562 4.601562 L 0.601562 3.398438 L 15.398438 3.398438 M 15.601562 3.199219 L 0.398438 3.199219 L 0.398438 4.800781 L 15.601562 4.800781 Z M 15.601562 3.199219 "/>
<path style=" stroke:none;fill-rule:nonzero;fill:rgb(100%,100%,100%);fill-opacity:1;" d="M 0.5 11.300781 L 15.5 11.300781 L 15.5 12.699219 L 0.5 12.699219 Z M 0.5 11.300781 "/>
<path style=" stroke:none;fill-rule:nonzero;fill:rgb(77.254902%,72.156863%,100%);fill-opacity:1;" d="M 15.398438 11.398438 L 15.398438 12.601562 L 0.601562 12.601562 L 0.601562 11.398438 L 15.398438 11.398438 M 15.601562 11.199219 L 0.398438 11.199219 L 0.398438 12.800781 L 15.601562 12.800781 Z M 15.601562 11.199219 "/>
</g>
</svg>
