<?xml version="1.0" encoding="UTF-8"?>
<svg xmlns="http://www.w3.org/2000/svg" xmlns:xlink="http://www.w3.org/1999/xlink" width="24pt" height="24pt" viewBox="0 0 24 24" version="1.1">
<g id="surface972220">
<path style=" stroke:none;fill-rule:nonzero;fill:rgb(100%,100%,100%);fill-opacity:1;" d="M 6.75 3 C 4.6875 3 3 4.6875 3 6.75 L 3 17.25 C 3 19.3125 4.6875 21 6.75 21 L 17.25 21 C 19.3125 21 21 19.3125 21 17.25 L 21 6.75 C 21 4.6875 19.3125 3 17.25 3 Z M 6.75 4.5 L 17.25 4.5 C 18.5 4.5 19.5 5.5 19.5 6.75 L 19.5 9 L 15.300781 9 C 14.476562 8.09375 13.316406 7.5 12 7.5 C 10.683594 7.5 9.523438 8.09375 8.699219 9 L 4.5 9 L 4.5 6.75 C 4.5 5.5 5.5 4.5 6.75 4.5 Z M 15.75 6 C 15.480469 5.996094 15.226562 6.136719 15.089844 6.371094 C 14.957031 6.605469 14.957031 6.894531 15.089844 7.128906 C 15.226562 7.363281 15.480469 7.503906 15.75 7.5 L 17.25 7.5 C 17.519531 7.503906 17.773438 7.363281 17.910156 7.128906 C 18.042969 6.894531 18.042969 6.605469 17.910156 6.371094 C 17.773438 6.136719 17.519531 5.996094 17.25 6 Z M 12 9 C 13.664062 9 15 10.335938 15 12 C 15 13.664062 13.664062 15 12 15 C 10.335938 15 9 13.664062 9 12 C 9 10.335938 10.335938 9 12 9 Z M 4.5 10.5 L 7.804688 10.5 C 7.632812 10.972656 7.5 11.46875 7.5 12 C 7.5 14.476562 9.523438 16.5 12 16.5 C 14.476562 16.5 16.5 14.476562 16.5 12 C 16.5 11.46875 16.367188 10.972656 16.195312 10.5 L 19.5 10.5 L 19.5 17.25 C 19.5 18.5 18.5 19.5 17.25 19.5 L 6.75 19.5 C 5.5 19.5 4.5 18.5 4.5 17.25 Z M 4.5 10.5 "/>
</g>
</svg>
